<?xml version="1.0" standalone="no"?> <!DOCTYPE svg PUBLIC "-//W3C//DTD SVG 20010904//EN" "http://www.w3.org/TR/2001/REC-SVG-20010904/DTD/svg10.dtd"> <svg version="1.0" xmlns="http://www.w3.org/2000/svg" width="185.000000pt" height="112.000000pt" viewBox="0 0 185.000000 112.000000" preserveAspectRatio="xMidYMid meet"> <g transform="translate(0.000000,112.000000) scale(0.100000,-0.100000)" fill="#26225d" stroke="none"> <path d="M975 876 c-98 -44 -122 -167 -47 -239 76 -72 200 -57 250 32 39 69 21 142 -50 194 -34 25 -113 32 -153 13z"/> <path d="M1425 746 c-98 -44 -122 -167 -47 -239 76 -72 200 -57 250 32 39 69 21 142 -50 194 -34 25 -113 32 -153 13z"/> <path d="M375 646 c-98 -44 -122 -167 -47 -239 76 -72 200 -57 250 32 39 69 21 142 -50 194 -34 25 -113 32 -153 13z"/> <path d="M775 446 c-98 -44 -122 -167 -47 -239 76 -72 200 -57 250 32 39 69 21 142 -50 194 -34 25 -113 32 -153 13z"/> </g> </svg>